<svg width="26" height="26" viewBox="0 0 26 26" fill="none" xmlns="http://www.w3.org/2000/svg">
<g clip-path="url(#clip0_26_627)">
<path d="M21 15H11V5C11 2.794 9.206 1 7 1H5C2.794 1 1 2.794 1 5V20C1 22.757 3.243 25 6 25H21C23.206 25 25 23.206 25 21V19C25 16.794 23.206 15 21 15ZM23 21C23 22.103 22.103 23 21 23H6C4.346 23 3 21.654 3 20V5C3 3.897 3.897 3 5 3H7C8.103 3 9 3.897 9 5V7H7C6.448 7 6 7.447 6 8C6 8.553 6.448 9 7 9H9V11H7C6.448 11 6 11.447 6 12C6 12.553 6.448 13 7 13H9V15H7C6.448 15 6 15.447 6 16C6 16.553 6.448 17 7 17H9V19C9 19.553 9.448 20 10 20C10.552 20 11 19.553 11 19V17H13V19C13 19.553 13.448 20 14 20C14.552 20 15 19.553 15 19V17H17V19C17 19.553 17.447 20 18 20C18.553 20 19 19.553 19 19V17H21C22.103 17 23 17.897 23 19V21Z" fill="#B62D25" stroke="#B62D25"/>
</g>
<defs>
<clipPath id="clip0_26_627">
<rect width="26" height="26" fill="white"/>
</clipPath>
</defs>
</svg>
