<svg width="24" height="26" viewBox="0 0 24 26" fill="none" xmlns="http://www.w3.org/2000/svg">
<path d="M18.581 3.14L12.316 1.051C12.1109 0.982676 11.8891 0.982676 11.684 1.051L5.419 3.14C4.42291 3.47088 3.55642 4.10725 2.94265 4.95871C2.32887 5.81016 1.99904 6.83338 2 7.883V13C2 20.563 11.2 24.74 11.594 24.914C11.7218 24.9708 11.8601 25.0001 12 25.0001C12.1399 25.0001 12.2782 24.9708 12.406 24.914C12.8 24.74 22 20.563 22 13V7.883C22.001 6.83338 21.6711 5.81016 21.0574 4.95871C20.4436 4.10725 19.5771 3.47088 18.581 3.14ZM20 13C20 18.455 13.681 22.033 12 22.889C10.317 22.036 4 18.469 4 13V7.883C4.00006 7.25327 4.19828 6.63954 4.56657 6.12874C4.93486 5.61794 5.45455 5.23599 6.052 5.037L12 3.054L17.948 5.037C18.5455 5.23599 19.0651 5.61794 19.4334 6.12874C19.8017 6.63954 19.9999 7.25327 20 7.883V13Z" fill="#B62D25" stroke="#B62D25"/>
<path d="M15.3 9.3L11.112 13.5L8.86801 11.16C8.77795 11.0615 8.6691 10.9821 8.54787 10.9263C8.42663 10.8706 8.29547 10.8397 8.1621 10.8354C8.02874 10.8311 7.89586 10.8536 7.77131 10.9015C7.64676 10.9494 7.53305 11.0217 7.43688 11.1142C7.34071 11.2067 7.26402 11.3175 7.21134 11.4401C7.15866 11.5627 7.13104 11.6946 7.13012 11.828C7.1292 11.9614 7.15499 12.0937 7.20598 12.217C7.25697 12.3403 7.33212 12.4522 7.42701 12.546L9.73301 14.946C9.90498 15.1318 10.1128 15.2807 10.344 15.3838C10.5752 15.487 10.8249 15.5421 11.078 15.546H11.111C11.3591 15.5468 11.6048 15.4984 11.834 15.4034C12.0632 15.3085 12.2712 15.169 12.446 14.993L16.718 10.721C16.8113 10.6279 16.8854 10.5173 16.9359 10.3956C16.9865 10.2739 17.0126 10.1434 17.0127 10.0116C17.0129 9.87975 16.9871 9.7492 16.9367 9.62736C16.8864 9.50553 16.8126 9.3948 16.7195 9.3015C16.6264 9.20819 16.5158 9.13414 16.3941 9.08357C16.2724 9.033 16.1419 9.0069 16.0101 9.00676C15.8783 9.00662 15.7477 9.03245 15.6259 9.08276C15.504 9.13307 15.3933 9.20689 15.3 9.3Z" fill="#B62D25" stroke="#B62D25"/>
</svg>
