<svg width="26" height="26" viewBox="0 0 26 26" fill="none" xmlns="http://www.w3.org/2000/svg">
<path d="M18.979 14.024C17.86 12.908 16.166 12.706 14.839 13.417L10.007 8.585V5.499C10.007 4.486 9.46201 3.543 8.58501 3.037L5.60401 1.318C4.67301 0.780003 3.49201 0.937003 2.73001 1.697L1.70501 2.724C0.944009 3.483 0.789009 4.665 1.32601 5.596L3.04501 8.577C3.55101 9.455 4.49501 10 5.50701 10H8.59301L13.419 14.826C13.141 15.334 12.993 15.905 12.993 16.5C12.993 17.436 13.358 18.314 14.021 18.976L19.035 23.976C19.693 24.632 20.589 25 21.515 25C22.5 25 23.603 24.479 24.233 23.711C25.359 22.339 25.209 20.236 23.892 18.924L18.979 14.024ZM4.77701 7.579L3.05801 4.597C2.97201 4.449 2.99701 4.26 3.11901 4.138L4.14401 3.112C4.26601 2.991 4.45501 2.965 4.60401 3.051L7.58401 4.771C7.84401 4.921 8.00601 5.201 8.00601 5.5V8H5.50601C5.20601 8 4.92701 7.839 4.77701 7.579ZM22.687 22.442C22.411 22.779 22.021 22.976 21.59 22.998C21.169 23.018 20.749 22.859 20.448 22.56L15.434 17.56C15.15 17.277 14.994 16.901 14.994 16.5C14.994 16.099 15.151 15.724 15.434 15.44C15.728 15.147 16.115 15 16.501 15C16.887 15 17.273 15.147 17.567 15.44L22.481 20.339C23.077 20.934 23.167 21.857 22.687 22.442ZM11.437 18.099C11.827 18.491 11.826 19.123 11.435 19.513L6.95801 23.975C6.30001 24.631 5.40501 24.999 4.47801 24.999C3.59701 24.999 2.39001 24.478 1.76001 23.709C0.635009 22.338 0.784009 20.235 2.10201 18.923L7.77001 13.268C8.16001 12.878 8.79401 12.878 9.18401 13.27C9.57401 13.661 9.57301 14.294 9.18201 14.684L3.51301 20.339C2.91701 20.934 2.82501 21.857 3.30501 22.441C3.58201 22.779 3.97201 22.976 4.40301 22.998C4.82901 23.017 5.24401 22.859 5.54501 22.56L10.023 18.098C10.414 17.708 11.046 17.708 11.438 18.1L11.437 18.099ZM10.893 5.634C11.813 3.291 13.917 1.56 16.384 1.117C17.247 0.963003 18.114 0.960003 18.963 1.111C19.629 1.229 20.166 1.699 20.365 2.335C20.594 3.064 20.365 3.866 19.753 4.48L17.418 6.722C16.933 7.207 16.854 7.983 17.253 8.471C17.483 8.752 17.806 8.916 18.164 8.935C18.513 8.952 18.858 8.823 19.111 8.57L21.725 6.049C22.211 5.563 22.938 5.382 23.618 5.599C24.282 5.808 24.769 6.361 24.89 7.04C25.04 7.888 25.038 8.757 24.884 9.621C24.603 11.193 23.784 12.657 22.578 13.744C22.387 13.916 22.147 14.001 21.909 14.001C21.636 14.001 21.363 13.89 21.166 13.671C20.796 13.261 20.829 12.628 21.239 12.258C22.116 11.468 22.711 10.406 22.915 9.27C23.013 8.722 23.027 8.175 22.958 7.638L20.513 9.997C19.878 10.634 18.983 10.981 18.065 10.933C17.149 10.887 16.289 10.452 15.705 9.738C14.663 8.464 14.801 6.512 16.019 5.295L18.353 3.053L18.362 3.044C17.827 2.976 17.281 2.99 16.737 3.088C14.949 3.408 13.424 4.665 12.755 6.367C12.554 6.881 11.973 7.134 11.459 6.932C10.945 6.73 10.691 6.15 10.894 5.636L10.893 5.634Z" fill="#B62D25" stroke="#B62D25"/>
</svg>
